<svg width="80" height="80" viewBox="0 0 80 80" fill="none" xmlns="http://www.w3.org/2000/svg">
<path d="M0.425532 6C0.425532 2.92131 2.92131 0.425532 6 0.425532H74C77.0787 0.425532 79.5745 2.92131 79.5745 6V74C79.5745 77.0787 77.0787 79.5745 74 79.5745H6C2.92131 79.5745 0.425532 77.0787 0.425532 74V6Z" fill="#FAFAFA" stroke="#E6E6E6" stroke-width="0.851064"/>
<path d="M49.3333 36.0001H42.6667V29.3334H30.6667V39.8095L32.6667 41.6667L37.3333 36.6667L41.3333 43.3334L44 40.0001L48 44.0001L44 43.3334L41.3333 46.6667L37.3333 41.3334L33.3333 46.0001L30.6667 44.3334V50.6667H49.3333V36.0001ZM52 34.6667V51.991C52 52.7335 51.4069 53.3334 50.6755 53.3334H29.3245C28.5933 53.3334 28 52.7414 28 52.011V27.9891C28 27.2738 28.5983 26.6667 29.3363 26.6667H43.9957L52 34.6667Z" fill="#404040"/>
</svg>
